HIERARCHY
ROOT ROOT
{
	OFFSET 0.000000 56.020000 -5.659234
	CHANNELS 6 Xposition Yposition Zposition Xrotation Yrotation Zrotation 
	JOINT C_spine0001_bind_JNT
	{
		OFFSET 0.000000 1.618999 0.000000
		CHANNELS 3 Xrotation Yrotation Zrotation
		JOINT C_spine0002_bind_JNT
		{
			OFFSET 0.000000 4.942001 0.000001
			CHANNELS 3 Xrotation Yrotation Zrotation
			JOINT C_spine0003_bind_JNT
			{
				OFFSET 0.000000 4.942001 -0.000000
				CHANNELS 3 Xrotation Yrotation Zrotation
				JOINT C_neck0001_bind_JNT
				{
					OFFSET 0.000000 17.026009 -0.000000
					CHANNELS 3 Xrotation Yrotation Zrotation
					JOINT C_neck0002_bind_JNT
					{
						OFFSET 0.000000 3.249985 0.000000
						CHANNELS 3 Xrotation Yrotation Zrotation
						JOINT C_head_bind_JNT
						{
							OFFSET 0.000000 5.278008 0.000000
							CHANNELS 3 Xrotation Yrotation Zrotation
							End Site
							{
								OFFSET 0.000000 0.000000 0.000000
							}
						}
					}
				}
				JOINT L_clavicle_bind_JNT
				{
					OFFSET 4.590000 12.067001 0.834000
					CHANNELS 3 Xrotation Yrotation Zrotation
					JOINT L_armUpper0001_bind_JNT
					{
						OFFSET 7.812635 0.512001 -3.452945
						CHANNELS 3 Xrotation Yrotation Zrotation
						JOINT L_armLower0001_bind_JNT
						{
							OFFSET 15.265892 -6.552116 -0.058157
							CHANNELS 3 Xrotation Yrotation Zrotation
							JOINT L_hand0001_bind_JNT
							{
								OFFSET 14.747667 -6.369995 5.049225
								CHANNELS 3 Xrotation Yrotation Zrotation
								End Site
								{
									OFFSET 0.000000 0.000000 0.000000
								}
							}
						}
					}
				}
				JOINT R_clavicle_bind_JNT
				{
					OFFSET -4.590000 12.067001 0.834000
					CHANNELS 3 Xrotation Yrotation Zrotation
					JOINT R_armUpper0001_bind_JNT
					{
						OFFSET -7.812635 0.512001 -3.452945
						CHANNELS 3 Xrotation Yrotation Zrotation
						JOINT R_armLower0001_bind_JNT
						{
							OFFSET -15.265890 -6.552124 -0.058160
							CHANNELS 3 Xrotation Yrotation Zrotation
							JOINT R_hand0001_bind_JNT
							{
								OFFSET -14.746784 -6.369629 5.048937
								CHANNELS 3 Xrotation Yrotation Zrotation
								End Site
								{
									OFFSET 0.000000 0.000000 0.000000
								}
							}
						}
					}
				}
			}
		}
	}
	JOINT C_pelvis0001_bind_JNT
	{
		OFFSET -0.000000 0.000000 0.000000
		CHANNELS 3 Xrotation Yrotation Zrotation
		JOINT L_legUpper0001_bind_JNT
		{
			OFFSET 6.599999 -6.027000 0.539000
			CHANNELS 3 Xrotation Yrotation Zrotation
			JOINT L_legLower0001_bind_JNT
			{
				OFFSET -0.140713 -19.187443 0.040261
				CHANNELS 3 Xrotation Yrotation Zrotation
				JOINT L_foot0001_bind_JNT
				{
					OFFSET -0.132215 -18.028637 -1.138370
					CHANNELS 3 Xrotation Yrotation Zrotation
					JOINT L_foot0002_bind_JNT
					{
						OFFSET 0.007014 -4.693133 9.886524
						CHANNELS 3 Xrotation Yrotation Zrotation
						End Site
						{
							OFFSET 0.000000 0.000000 0.000000
						}
					}
				}
			}
		}
		JOINT R_legUpper0001_bind_JNT
		{
			OFFSET -6.599999 -6.027000 0.539000
			CHANNELS 3 Xrotation Yrotation Zrotation
			JOINT R_legLower0001_bind_JNT
			{
				OFFSET 0.140710 -19.187164 0.040550
				CHANNELS 3 Xrotation Yrotation Zrotation
				JOINT R_foot0001_bind_JNT
				{
					OFFSET 0.132215 -18.028633 -1.138362
					CHANNELS 3 Xrotation Yrotation Zrotation
					JOINT R_foot0002_bind_JNT
					{
						OFFSET -0.007014 -4.693128 9.886505
						CHANNELS 3 Xrotation Yrotation Zrotation
						End Site
						{
							OFFSET 0.000000 0.000000 0.000000
						}
					}
				}
			}
		}
	}
}
MOTION
Frames: 10
Frame Time: 0.033333
0.000000 45.071465 0.000000 0.069732 17.038961 -0.053526 5.946887 -17.250059 4.158952 -1.590088 -1.261769 2.260022 9.106378 -0.933704 2.312844 17.465239 2.820936 -4.048380 0.303519 0.558381 -0.633838 -5.130685 6.928159 -6.410589 3.196137 7.801614 3.267807 -23.980492 0.091876 -54.382740 -8.736410 -14.542302 -10.347497 -5.005220 -12.223654 -17.626575 4.489923 -5.141333 -4.083148 -20.213306 -3.038234 60.365036 13.828336 -2.553743 -7.685227 0.840331 7.750569 23.755871 0.181100 -14.741229 -2.556356 -40.604881 4.377221 16.871267 9.660866 -1.836161 6.487927 -2.412592 -16.561691 -4.901835 -4.830257 -1.583071 -0.965580 -18.548666 2.086511 14.702953 36.075840 2.125937 2.207474 -17.416107 -11.203262 -12.049229 -3.280213 -0.089799 -1.745972
0.095223 44.883499 0.096317 0.013304 17.884224 -0.014118 6.027949 -17.973328 4.078922 -1.490805 -1.351725 2.381899 10.403902 -0.527908 2.317665 17.518984 2.211473 -4.275421 -0.162103 -0.004426 -0.568883 -6.024272 6.495285 -6.822316 2.224550 7.722310 2.509465 -25.693432 0.007153 -51.008717 -10.993010 -15.713539 -11.862969 -6.153895 -11.324986 -15.166277 3.884076 -5.604166 -3.819941 -20.635635 -2.801241 59.646374 14.002070 -2.157756 -7.532762 0.914969 7.966246 26.171000 0.222099 -15.528360 -3.164024 -41.529190 3.929256 17.018522 9.748928 -1.382356 5.353078 -4.309207 -18.264225 -5.089987 -3.702725 -2.404061 -0.020684 -19.764786 2.137544 14.219891 38.006165 2.982444 1.603485 -17.612602 -13.166260 -11.523789 -3.664141 -0.645998 -1.078780
-0.191033 44.353691 0.528302 0.018197 18.099823 -0.012422 6.440108 -18.229988 4.431874 -1.428825 -1.282503 2.446244 10.664193 -0.366508 1.954913 17.219196 2.385656 -4.133792 0.097700 -0.094462 -0.644195 -5.664134 6.360609 -6.810326 1.194528 8.220453 1.567086 -28.118114 0.356811 -47.661915 -11.751159 -17.314594 -13.414827 -5.195036 -11.856107 -14.686433 3.884993 -5.833639 -3.319592 -20.958282 -2.528276 59.920879 13.798656 -2.559590 -8.244519 0.917166 8.059879 25.807985 -0.604298 -16.217422 -3.472838 -42.921398 3.095905 16.974337 9.883678 -1.610960 5.630836 -4.373842 -17.706861 -5.589175 -3.833589 -2.493261 -0.257965 -20.673338 1.661920 14.962142 42.257870 2.917048 1.396632 -20.203991 -13.286884 -11.505629 -3.433880 -0.556982 -1.264810
-0.108032 44.067596 0.842915 0.047341 17.691692 -0.045070 6.957927 -18.083658 4.647235 -1.221368 -0.942639 2.496428 11.037062 -0.251418 1.772932 17.199800 2.215271 -4.321759 -0.107946 0.047692 -0.414250 -6.068741 6.179554 -6.640013 0.232267 8.847220 0.828604 -30.306320 -0.037455 -44.291618 -12.671821 -18.824961 -15.079657 -5.259410 -13.410287 -13.451647 3.538033 -5.751273 -3.294503 -20.960917 -2.583831 59.677307 14.160616 -2.623513 -8.173908 0.416764 8.081744 25.671820 -0.080585 -16.090841 -3.320585 -44.062519 2.869518 17.216837 9.632771 -1.902198 5.698495 -4.640932 -17.016026 -6.152346 -3.887360 -2.296657 -0.701393 -22.047607 1.162281 14.955101 44.673996 3.512234 1.183332 -21.463923 -13.203064 -11.451780 -3.571380 -0.275369 -1.454808
0.068459 43.571964 1.075479 0.019552 17.049042 -0.031312 7.798709 -17.448174 5.032948 -0.826363 -0.766605 2.505804 11.007422 -0.004139 1.595737 17.087860 2.255789 -4.107061 -0.121757 -0.228671 -0.523640 -5.757333 6.438187 -6.923223 -0.734623 8.912817 -0.024859 -32.739223 -0.033108 -40.560852 -13.569971 -20.977900 -16.404863 -5.276877 -15.452138 -12.557766 3.518458 -5.684345 -3.276827 -21.002039 -2.736835 59.379162 14.060216 -2.159404 -8.482677 0.506156 7.837246 25.635963 0.553356 -15.729429 -3.012275 -46.036278 2.920910 17.166435 9.599655 -2.117364 5.558167 -4.086902 -17.331892 -6.203513 -3.149592 -2.141044 -0.925579 -23.326052 1.244420 14.885839 47.714622 3.635859 1.080846 -23.545799 -12.627650 -11.443633 -3.747981 -0.176066 -1.577399
0.139049 43.119617 1.362602 0.042385 16.572426 -0.032396 8.707925 -16.903379 5.339760 -0.891513 -0.617777 2.433943 11.319286 0.103670 1.298464 16.953161 2.198843 -3.978188 -0.045216 0.069090 -0.634038 -5.851090 5.715562 -6.660408 -1.644010 9.594363 -0.624387 -35.939377 -0.601162 -36.995472 -14.286244 -23.621347 -17.820360 -5.411479 -17.002531 -11.637972 3.502173 -5.505080 -3.327221 -21.346718 -2.587038 59.427135 13.770329 -2.339717 -8.482247 0.842072 7.606797 25.860706 1.075563 -15.465382 -2.976571 -47.764637 3.076442 17.059549 10.393188 -2.324392 5.915755 -3.989146 -17.440832 -6.329182 -3.311025 -1.934046 -1.314784 -24.736591 1.167425 15.142916 50.479683 3.499724 1.287276 -25.212622 -12.112900 -11.534781 -3.754667 0.176674 -1.762253
0.131310 42.644329 1.631394 0.041053 16.589359 -0.040910 9.536591 -16.559587 5.850371 -0.654152 -0.496573 2.272254 11.677611 0.443403 0.972270 16.961569 1.898093 -3.859451 -0.146942 -0.164692 -0.484497 -6.125611 5.442853 -6.616371 -2.900820 9.704176 -1.226565 -39.015491 -2.178777 -33.865650 -15.128181 -25.487408 -18.074034 -5.619986 -18.589336 -10.925878 3.002993 -5.220294 -2.968668 -21.311802 -2.905330 58.881180 13.826104 -2.170397 -8.631726 1.003219 7.304934 25.989168 1.948259 -15.517985 -2.503645 -49.601860 3.532348 16.620388 11.584351 -2.107856 6.153783 -3.353054 -17.491903 -5.963599 -3.053068 -1.924756 -1.593285 -26.441225 1.055940 15.009663 52.909416 3.615391 1.619879 -26.583347 -11.665386 -11.890346 -3.874184 0.364203 -1.883137
0.208175 42.051437 1.729874 0.028906 16.623230 -0.037978 10.531781 -16.387415 6.229295 -0.383509 -0.087434 2.270057 11.770779 0.707679 0.798758 16.833082 1.268295 -4.087386 -0.144668 0.005308 -0.147685 -6.092510 4.689609 -6.569980 -3.963391 9.827376 -1.813989 -42.005222 -3.900090 -30.970295 -15.354871 -27.703165 -18.198849 -5.781772 -19.506981 -8.968614 2.593940 -5.341737 -3.150829 -21.689816 -2.470739 59.158531 13.754217 -3.025717 -9.240920 0.856127 7.281783 26.115627 2.616368 -15.686765 -2.260732 -51.766617 3.495343 16.360792 13.250885 -2.018948 6.453940 -2.817107 -17.404835 -5.890602 -3.178602 -1.803811 -2.043777 -27.752787 1.239758 15.318343 55.409332 3.325587 2.232687 -28.057589 -11.101954 -12.351166 -4.173794 0.295902 -2.080389
0.343078 41.473068 1.809969 0.022128 16.363335 -0.031793 11.406283 -15.730905 6.627905 -0.140044 -0.116393 2.248851 11.879668 0.915817 0.529810 16.755013 1.093249 -3.817075 -0.138793 0.118709 -0.123341 -5.944107 4.255667 -6.586774 -5.175681 9.873507 -2.453500 -44.251663 -6.477005 -27.490831 -16.151611 -29.853930 -17.845484 -6.621420 -19.915213 -6.243331 2.244129 -5.158718 -3.125947 -22.365171 -2.003953 59.026669 14.269567 -4.441330 -9.529979 0.724563 7.054083 25.740860 3.174212 -15.493831 -1.907669 -53.876793 3.573466 15.974026 14.458012 -1.421074 6.712115 -1.948049 -17.954531 -6.417742 -2.523998 -1.912051 -2.167611 -29.014782 1.482014 15.584319 57.949543 2.827916 2.843733 -29.205074 -10.605375 -12.540960 -4.804059 0.585412 -2.130306
0.444849 40.996342 1.964761 0.041719 16.125938 -0.037026 12.267772 -15.346539 7.045169 -0.104148 0.169486 2.235697 12.153173 0.889168 0.100367 16.705105 0.961136 -3.709093 -0.087263 0.133872 -0.184204 -6.282698 3.835154 -6.426979 -5.952564 10.143192 -3.099704 -46.477470 -8.988962 -24.640289 -15.993486 -32.499004 -16.845453 -8.485754 -20.300650 -3.465575 1.726850 -5.269987 -3.123693 -22.597658 -1.263134 59.259468 14.411744 -5.400679 -10.522093 0.772883 6.937865 25.997988 3.748403 -15.494883 -1.642635 -55.724888 3.748241 15.629651 15.956604 -1.613560 7.067591 -1.904637 -17.742926 -6.515134 -2.374384 -1.524654 -2.306054 -30.310560 1.458852 15.705751 60.303806 2.720568 2.973861 -29.949234 -10.176063 -12.635015 -5.506710 0.226643 -2.099066
